<?xml version="1.0" encoding="utf-8"?>
<!-- Generator: Adobe Illustrator 19.1.0, SVG Export Plug-In . SVG Version: 6.00 Build 0)  -->
<svg version="1.1" xmlns="http://www.w3.org/2000/svg" xmlns:xlink="http://www.w3.org/1999/xlink" x="0px" y="0px"
	 viewBox="0 0 2308.5 1910.1" enable-background="new 0 0 2308.5 1910.1" xml:space="preserve">
<g id="Layer_1">
	<g>
		<g>
			<g>
				<path fill="#2E2A25" d="M754.8,1010.2H625.6V768.7c0-34.4-12.5-64-37.5-88.8c-25-24.8-54.8-37.2-89.3-37.2
					c-35.2,0-65.4,12.3-90.4,36.8c-25,24.5-37.5,54.3-37.5,89.3v241.5H241.7V768.5c0-71.3,24.9-131.7,74.7-181
					c49.8-49.4,110.4-74.1,181.9-74.1c71.5,0,132.1,24.7,181.9,74.1c49.8,49.4,74.7,109.7,74.7,181V1010.2z"/>
			</g>
		</g>
	</g>
</g>
<g id="Layer_2">
	<path fill="#2E2A25" d="M1381.8,769c0,72.1-24.8,132.9-74.2,182.4c-49.5,49.4-110.2,74.2-182.4,74.2c-71.5,0-132.1-24.9-181.9-74.7
		c-49.8-49.8-74.7-110.4-74.7-181.9V513.4h129.2V769c0,35.1,12.3,65.1,37,90c24.7,24.9,54.6,37.4,89.9,37.4
		c35.2,0,65.3-12.4,90.3-37.4c25-24.9,37.5-54.9,37.5-90V513.4h129.3V769z"/>
</g>
<g id="Layer_3">
	<path fill="#FF8D6A" d="M1607.3,299.8l72.3-108.1C1357-23.9,919.8-19.5,598.4,233.4l80,101.6c126.6-99.7,284.8-161.7,458.1-168.4
		C1310.3,159.9,1473.1,209.8,1607.3,299.8z"/>
</g>
<g id="Layer_4">
	<path fill="#F2D383" d="M1956.3,925.4c3.3,85.2-7,167.8-29,245.7l124.6,35.2c77-273.8,27.6-579.2-161.8-819.7
		c-61.4-78-133.1-142.9-211.3-195.4L1606.6,299C1809.2,435.1,1946.2,662.8,1956.3,925.4z"/>
</g>
<g id="Layer_6">
	<g>
		<path fill="#65CBC9" d="M424.9,1229.1l-121.5,44.7c32.6,88.3,78.9,173.3,140.3,251.2c189.4,240.6,474.6,360.3,758.9,349.7
			l-5-129.5C846.7,1758.8,540.3,1541.6,424.9,1229.1z"/>
	</g>
</g>
<g id="Layer_7">
	<path fill="#B7DC78" d="M1197.3,1745.2l5,129.6c187.7-7.2,375-70.7,533.9-195.8s264.6-292.2,315.6-473l-124.6-35.2
		C1836.3,1491.2,1547.9,1731.3,1197.3,1745.2z"/>
</g>
</svg>
